<svg width="34" height="35" viewBox="0 0 34 35" fill="none" xmlns="http://www.w3.org/2000/svg">
<path d="M30.5126 14.8398H3.53769C3.17782 14.8367 2.82148 14.9109 2.49272 15.0573C2.16396 15.2037 1.87042 15.4189 1.63192 15.6884C1.39342 15.9579 1.21551 16.2754 1.11018 16.6195C1.00485 16.9637 0.974568 17.3264 1.02137 17.6832L2.85828 31.523C2.93813 32.1322 3.2381 32.6911 3.70163 33.0944C4.16516 33.4976 4.76022 33.7174 5.3746 33.7122H28.6254C29.2398 33.7174 29.8348 33.4976 30.2984 33.0944C30.7619 32.6911 31.0619 32.1322 31.1417 31.523L32.9786 17.6832C33.0249 17.3306 32.9959 16.9722 32.8935 16.6316C32.7911 16.291 32.6177 15.9759 32.3847 15.7073C32.1517 15.4386 31.8643 15.2224 31.5417 15.0728C31.219 14.9233 30.8683 14.8439 30.5126 14.8398Z" stroke="#E28F83" stroke-width="2" stroke-linecap="round" stroke-linejoin="round"/>
<path d="M10.7345 21.1306V27.4214" stroke="#E28F83" stroke-width="2" stroke-linecap="round" stroke-linejoin="round"/>
<path d="M17.0253 21.1306V27.4214" stroke="#E28F83" stroke-width="2" stroke-linecap="round" stroke-linejoin="round"/>
<path d="M23.316 21.1306V27.4214" stroke="#E28F83" stroke-width="2" stroke-linecap="round" stroke-linejoin="round"/>
<path d="M23.2656 3.61696C24.773 3.87737 26.154 4.62295 27.1987 5.74032C28.2434 6.85769 28.8946 8.28568 29.0532 9.8071L29.6068 14.8397" stroke="#E28F83" stroke-width="2" stroke-linecap="round" stroke-linejoin="round"/>
<path d="M4.4436 14.8398L4.99719 9.80712C5.16609 8.29471 5.82185 6.87814 6.86569 5.77076C7.90953 4.66338 9.28493 3.92517 10.7847 3.6673" stroke="#E28F83" stroke-width="2" stroke-linecap="round" stroke-linejoin="round"/>
<path d="M23.3161 4.1454C23.3161 4.55846 23.2347 4.96747 23.0767 5.34909C22.9186 5.73071 22.6869 6.07746 22.3948 6.36953C22.1028 6.66161 21.756 6.8933 21.3744 7.05137C20.9928 7.20944 20.5838 7.2908 20.1707 7.2908H13.8799C13.0457 7.2908 12.2456 6.95941 11.6558 6.36953C11.0659 5.77966 10.7345 4.97961 10.7345 4.1454C10.7345 3.31119 11.0659 2.51114 11.6558 1.92127C12.2456 1.33139 13.0457 1 13.8799 1H20.1707C21.0049 1 21.805 1.33139 22.3948 1.92127C22.9847 2.51114 23.3161 3.31119 23.3161 4.1454V4.1454Z" stroke="#E28F83" stroke-width="2" stroke-linecap="round" stroke-linejoin="round"/>
</svg>
