<svg width="16" height="16" viewBox="0 0 16 16" fill="none" xmlns="http://www.w3.org/2000/svg">
<path fill-rule="evenodd" clip-rule="evenodd" d="M7.50002 3.85889C5.06558 4.10908 3.16669 6.16612 3.16669 8.66667C3.16669 11.336 5.33064 13.5 8.00002 13.5C10.5006 13.5 12.5576 11.6011 12.8078 9.16667H8.00002C7.72388 9.16667 7.50002 8.94281 7.50002 8.66667V3.85889ZM2.16669 8.66667C2.16669 5.44501 4.77836 2.83334 8.00002 2.83334C8.27616 2.83334 8.50002 3.05719 8.50002 3.33334V8.16667H13.3334C13.6095 8.16667 13.8334 8.39053 13.8334 8.66667C13.8334 11.8883 11.2217 14.5 8.00002 14.5C4.77836 14.5 2.16669 11.8883 2.16669 8.66667Z" fill="#9FA29A"/>
<path fill-rule="evenodd" clip-rule="evenodd" d="M10.3334 3.11577V6.33334H13.5509C13.1756 4.74373 11.923 3.49112 10.3334 3.11577ZM9.9987 2.0411C12.4122 2.34145 14.3252 4.25445 14.6256 6.66799C14.6711 7.03337 14.3682 7.33334 14 7.33334H9.66669C9.48259 7.33334 9.33335 7.1841 9.33335 7V2.66667C9.33335 2.29848 9.63333 1.99563 9.9987 2.0411Z" fill="#9FA29A"/>
</svg>
