<svg width="34" height="34" viewBox="0 0 34 34" fill="none" xmlns="http://www.w3.org/2000/svg">
<path d="M4.69219 9.61537H24.3845C24.7109 9.61537 25.024 9.74504 25.2548 9.97586C25.4856 10.2067 25.6153 10.5197 25.6153 10.8461V21.9231C25.6153 23.2287 25.0966 24.4809 24.1733 25.4042C23.2501 26.3275 21.9979 26.8461 20.6922 26.8461H8.3845C7.07882 26.8461 5.82662 26.3275 4.90336 25.4042C3.98011 24.4809 3.46143 23.2287 3.46143 21.9231V10.8461C3.46143 10.5197 3.5911 10.2067 3.82191 9.97586C4.05272 9.74504 4.36577 9.61537 4.69219 9.61537V9.61537Z" stroke="#E28F83" stroke-width="2" stroke-linecap="round" stroke-linejoin="round"/>
<path d="M1 33H33" stroke="#E28F83" stroke-width="2" stroke-linecap="round" stroke-linejoin="round"/>
<path d="M25.6155 12.0769H28.077C29.3827 12.0769 30.6349 12.5956 31.5582 13.5189C32.4814 14.4421 33.0001 15.6943 33.0001 17C33.0001 18.3057 32.4814 19.5579 31.5582 20.4811C30.6349 21.4044 29.3827 21.9231 28.077 21.9231H25.6155" stroke="#E28F83" stroke-width="2" stroke-linecap="round" stroke-linejoin="round"/>
<path d="M7.15393 1V3.46154" stroke="#E28F83" stroke-width="2" stroke-linecap="round" stroke-linejoin="round"/>
<path d="M19.4614 1V3.46154" stroke="#E28F83" stroke-width="2" stroke-linecap="round" stroke-linejoin="round"/>
<path d="M13.3077 1V3.46154" stroke="#E28F83" stroke-width="2" stroke-linecap="round" stroke-linejoin="round"/>
</svg>
