<svg width="16" height="12" viewBox="0 0 16 12" fill="none" xmlns="http://www.w3.org/2000/svg">
<path d="M8.22936 6.15529C8.61794 5.82927 8.92962 5.42604 9.14323 4.97296C9.35685 4.51988 9.46741 4.02756 9.4674 3.52941C9.4674 2.59335 9.08376 1.69563 8.40089 1.03374C7.71801 0.371848 6.79183 1.2629e-07 5.82609 1.2629e-07C4.86036 1.2629e-07 3.93418 0.371848 3.2513 1.03374C2.56842 1.69563 2.18478 2.59335 2.18478 3.52941C2.18478 4.02756 2.29534 4.51988 2.50895 4.97296C2.72257 5.42604 3.03425 5.82927 3.42283 6.15529C2.40336 6.60274 1.53843 7.32531 0.931432 8.23662C0.324437 9.14792 0.0010719 10.2094 0 11.2941C0 11.4813 0.0767273 11.6609 0.213303 11.7933C0.349878 11.9256 0.535115 12 0.728262 12C0.921409 12 1.10664 11.9256 1.24322 11.7933C1.3798 11.6609 1.45652 11.4813 1.45652 11.2941C1.45652 10.1708 1.91689 9.09359 2.73634 8.29931C3.55579 7.50504 4.66721 7.05882 5.82609 7.05882C6.98497 7.05882 8.09639 7.50504 8.91584 8.29931C9.7353 9.09359 10.1957 10.1708 10.1957 11.2941C10.1957 11.4813 10.2724 11.6609 10.409 11.7933C10.5455 11.9256 10.7308 12 10.9239 12C11.1171 12 11.3023 11.9256 11.4389 11.7933C11.5755 11.6609 11.6522 11.4813 11.6522 11.2941C11.6511 10.2094 11.3277 9.14792 10.7208 8.23662C10.1138 7.32531 9.24882 6.60274 8.22936 6.15529ZM5.82609 5.64706C5.39398 5.64706 4.97158 5.52286 4.61229 5.29017C4.25301 5.05748 3.97298 4.72675 3.80762 4.3398C3.64225 3.95285 3.59899 3.52706 3.68329 3.11628C3.76759 2.7055 3.97567 2.32817 4.28122 2.03201C4.58676 1.73585 4.97606 1.53416 5.39986 1.45246C5.82367 1.37075 6.26296 1.41268 6.66217 1.57296C7.06139 1.73324 7.40261 2.00466 7.64267 2.35291C7.88274 2.70116 8.01088 3.11058 8.01088 3.52941C8.01088 4.09105 7.7807 4.62968 7.37097 5.02681C6.96124 5.42395 6.40553 5.64706 5.82609 5.64706ZM12.9194 5.87294C13.3854 5.36423 13.6899 4.7358 13.796 4.0633C13.9022 3.39079 13.8056 2.70288 13.5178 2.08235C13.23 1.46183 12.7634 0.93515 12.174 0.56571C11.5846 0.196271 10.8976 -0.000181835 10.1957 1.2629e-07C10.0025 1.2629e-07 9.81728 0.0743696 9.6807 0.206748C9.54413 0.339127 9.4674 0.518671 9.4674 0.705883C9.4674 0.893094 9.54413 1.07264 9.6807 1.20502C9.81728 1.3374 10.0025 1.41176 10.1957 1.41176C10.7751 1.41176 11.3308 1.63487 11.7405 2.03201C12.1503 2.42915 12.3804 2.96778 12.3804 3.52941C12.3794 3.90017 12.278 4.26417 12.0863 4.585C11.8946 4.90584 11.6193 5.17227 11.2881 5.35765C11.1801 5.41802 11.0899 5.50423 11.0261 5.60805C10.9624 5.71187 10.9272 5.82981 10.9239 5.95059C10.9209 6.07042 10.9494 6.18903 11.0067 6.29524C11.064 6.40145 11.1483 6.49176 11.2516 6.55765L11.5357 6.74118L11.6303 6.79059C12.5082 7.19415 13.2488 7.83246 13.7649 8.63034C14.281 9.42822 14.5511 10.3524 14.5434 11.2941C14.5434 11.4813 14.6201 11.6609 14.7567 11.7933C14.8933 11.9256 15.0785 12 15.2716 12C15.4648 12 15.65 11.9256 15.7866 11.7933C15.9232 11.6609 15.9999 11.4813 15.9999 11.2941C16.0059 10.2109 15.726 9.14418 15.1868 8.19534C14.6476 7.2465 13.8671 6.44704 12.9194 5.87294Z" fill="#9FA29A"/>
</svg>
