<svg width="15" height="16" viewBox="0 0 15 16" fill="none" xmlns="http://www.w3.org/2000/svg">
<path d="M6.26677 14.2241H2.58218C2.38674 14.2241 2.1993 14.1437 2.0611 14.0005C1.9229 13.8574 1.84526 13.6633 1.84526 13.4608V2.77545C1.84526 2.57302 1.9229 2.37889 2.0611 2.23575C2.1993 2.09262 2.38674 2.0122 2.58218 2.0122H6.26677V4.30193C6.26677 4.90921 6.49969 5.49161 6.91428 5.92101C7.32888 6.35042 7.89119 6.59166 8.47752 6.59166H10.6883C10.6883 6.79409 10.7659 6.98822 10.9041 7.13135C11.0423 7.27449 11.2297 7.3549 11.4252 7.3549C11.6206 7.3549 11.8081 7.27449 11.9463 7.13135C12.0845 6.98822 12.1621 6.79409 12.1621 6.59166V5.82842C12.1621 5.82842 12.1621 5.82842 12.1621 5.78262C12.1544 5.71251 12.1396 5.64343 12.1179 5.57655V5.50786C12.0825 5.42938 12.0352 5.35724 11.9779 5.29415L7.55637 0.714691C7.49546 0.655323 7.42581 0.606372 7.35004 0.569674C7.32804 0.566438 7.30571 0.566438 7.28371 0.569674L7.0479 0.485718H2.58218C1.99585 0.485718 1.43354 0.726956 1.01894 1.15636C0.604347 1.58577 0.371429 2.16817 0.371429 2.77545V13.4608C0.371429 14.0681 0.604347 14.6505 1.01894 15.0799C1.43354 15.5093 1.99585 15.7506 2.58218 15.7506H6.26677C6.46221 15.7506 6.64965 15.6702 6.78785 15.527C6.92605 15.3839 7.00369 15.1898 7.00369 14.9873C7.00369 14.7849 6.92605 14.5908 6.78785 14.4476C6.64965 14.3045 6.46221 14.2241 6.26677 14.2241ZM7.7406 3.08838L9.64922 5.06518H8.47752C8.28208 5.06518 8.09464 4.98476 7.95644 4.84163C7.81824 4.69849 7.7406 4.50436 7.7406 4.30193V3.08838ZM4.05602 5.06518C3.86057 5.06517 3.67314 5.14559 3.53494 5.28872C3.39674 5.43186 3.3191 5.62599 3.3191 5.82842C3.3191 6.03084 3.39674 6.22498 3.53494 6.36811C3.67314 6.51125 3.86057 6.59166 4.05602 6.59166H4.79293C4.98838 6.59166 5.17581 6.51125 5.31401 6.36811C5.45221 6.22498 5.52985 6.03084 5.52985 5.82842C5.52985 5.62599 5.45221 5.43186 5.31401 5.28872C5.17581 5.14559 4.98838 5.06517 4.79293 5.06518H4.05602ZM14.1002 9.53778C14.0146 9.46605 13.9145 9.4151 13.8074 9.38869C13.7003 9.36227 13.5888 9.36106 13.4812 9.38513C13.2018 9.44611 12.9131 9.44569 12.6338 9.3839C12.3546 9.32211 12.0909 9.20032 11.86 9.0264C11.7338 8.93089 11.5815 8.87941 11.4252 8.87941C11.2689 8.87941 11.1166 8.93089 10.9904 9.0264C10.7592 9.1999 10.4956 9.32143 10.2164 9.3832C9.93721 9.44498 9.64864 9.44563 9.36919 9.38513C9.26036 9.36089 9.14765 9.3625 9.03951 9.38984C8.93136 9.41718 8.83061 9.46954 8.7448 9.54298C8.659 9.61643 8.59037 9.70906 8.54408 9.81391C8.49779 9.91876 8.47503 10.0331 8.47752 10.1484V11.9344C8.47637 12.4807 8.59835 13.0198 8.83374 13.5087C9.06913 13.9976 9.41145 14.4229 9.83345 14.7507L10.983 15.5979C11.1106 15.697 11.2657 15.7506 11.4252 15.7506C11.5846 15.7506 11.7398 15.697 11.8673 15.5979L13.0169 14.7126C13.434 14.3886 13.7733 13.9695 14.0084 13.4876C14.2436 13.0058 14.3683 12.4742 14.3729 11.9344V10.1255C14.3721 10.0127 14.3473 9.90157 14.3002 9.79995C14.253 9.69834 14.1847 9.6088 14.1002 9.53778ZM12.899 11.9344C12.9025 12.241 12.8378 12.5443 12.7101 12.8209C12.5823 13.0975 12.3948 13.34 12.1621 13.5295L11.4252 14.0791L10.6883 13.5295C10.4556 13.34 10.2681 13.0975 10.1403 12.8209C10.0125 12.5443 9.94788 12.241 9.95135 11.9344V10.9574C10.4668 10.9334 10.9704 10.79 11.4252 10.5376C11.88 10.79 12.3836 10.9334 12.899 10.9574V11.9344ZM6.26677 11.2093H4.05602C3.86057 11.2093 3.67314 11.2897 3.53494 11.4328C3.39674 11.576 3.3191 11.7701 3.3191 11.9725C3.3191 12.1749 3.39674 12.3691 3.53494 12.5122C3.67314 12.6554 3.86057 12.7358 4.05602 12.7358H6.26677C6.46221 12.7358 6.64965 12.6554 6.78785 12.5122C6.92605 12.3691 7.00369 12.1749 7.00369 11.9725C7.00369 11.7701 6.92605 11.576 6.78785 11.4328C6.64965 11.2897 6.46221 11.2093 6.26677 11.2093ZM7.00369 8.15631H4.05602C3.86057 8.15631 3.67314 8.23672 3.53494 8.37986C3.39674 8.52299 3.3191 8.71713 3.3191 8.91955C3.3191 9.12198 3.39674 9.31611 3.53494 9.45925C3.67314 9.60238 3.86057 9.68279 4.05602 9.68279H7.00369C7.19913 9.68279 7.38657 9.60238 7.52476 9.45925C7.66296 9.31611 7.7406 9.12198 7.7406 8.91955C7.7406 8.71713 7.66296 8.52299 7.52476 8.37986C7.38657 8.23672 7.19913 8.15631 7.00369 8.15631Z" fill="#8E9775"/>
</svg>
