<svg width="42" height="42" viewBox="0 0 42 42" fill="none" xmlns="http://www.w3.org/2000/svg">
<path d="M5.25 16C5.25 15.0572 5.25 14.5858 5.54289 14.2929C5.83579 14 6.30719 14 7.25 14H34.75C35.6928 14 36.1642 14 36.4571 14.2929C36.75 14.5858 36.75 15.0572 36.75 16V20.75C36.75 21.6928 36.75 22.1642 36.4571 22.4571C36.1642 22.75 35.6928 22.75 34.75 22.75H33.5C32.5572 22.75 32.0858 22.75 31.7929 23.0429C31.5 23.3358 31.5 23.8072 31.5 24.75V33C31.5 33.9428 31.5 34.4142 31.2071 34.7071C30.9142 35 30.4428 35 29.5 35H12.5C11.5572 35 11.0858 35 10.7929 34.7071C10.5 34.4142 10.5 33.9428 10.5 33V24.75C10.5 23.8072 10.5 23.3358 10.2071 23.0429C9.91421 22.75 9.44281 22.75 8.5 22.75H7.25C6.30719 22.75 5.83579 22.75 5.54289 22.4571C5.25 22.1642 5.25 21.6928 5.25 20.75V16Z" stroke="#E28F83" stroke-width="2"/>
<path d="M8.75 22.75H33.25" stroke="#E28F83" stroke-width="2" stroke-linecap="round"/>
<path d="M21 12.25L21 35" stroke="#E28F83" stroke-width="2" stroke-linecap="round"/>
<path d="M21 12.25L18.4612 9.71118C17.2537 8.50366 15.7816 7.59386 14.1615 7.05384L11.3825 6.12749C10.0874 5.6958 8.75 6.65974 8.75 8.02485V10.8085C8.75 11.6693 9.30086 12.4336 10.1175 12.7058L14 14" stroke="#E28F83" stroke-width="2" stroke-linecap="round"/>
<path d="M21 12.25L23.5388 9.71118C24.7463 8.50366 26.2184 7.59386 27.8385 7.05384L30.6175 6.12749C31.9126 5.6958 33.25 6.65974 33.25 8.02485V10.8085C33.25 11.6693 32.6991 12.4336 31.8825 12.7058L28 14" stroke="#E28F83" stroke-width="2" stroke-linecap="round"/>
</svg>
