<svg width="11" height="13" viewBox="0 0 11 13" fill="none" xmlns="http://www.w3.org/2000/svg">
<path d="M10.3889 3.91088L6.72223 0.495962C6.38611 0.176574 5.95097 0 5.50002 0C5.04906 0 4.61393 0.176574 4.27781 0.495962L0.611165 3.91088C0.417058 4.0953 0.262162 4.32155 0.15679 4.57454C0.0514176 4.82754 -0.0020121 5.10147 5.79293e-05 5.37812V11.0523C5.79293e-05 11.5689 0.193211 12.0643 0.537025 12.4295C0.880839 12.7948 1.34715 13 1.83338 13H9.16666C9.65289 13 10.1192 12.7948 10.463 12.4295C10.8068 12.0643 11 11.5689 11 11.0523V5.37163C11.0012 5.09607 10.9473 4.82339 10.842 4.57158C10.7366 4.31977 10.5822 4.09458 10.3889 3.91088ZM6.72223 11.7016H4.27781V8.45544C4.27781 8.28325 4.34219 8.11812 4.45679 7.99637C4.5714 7.87462 4.72684 7.80621 4.88891 7.80621H6.11112C6.2732 7.80621 6.42864 7.87462 6.54324 7.99637C6.65785 8.11812 6.72223 8.28325 6.72223 8.45544V11.7016ZM9.77777 11.0523C9.77777 11.2245 9.71338 11.3896 9.59878 11.5114C9.48417 11.6332 9.32873 11.7016 9.16666 11.7016H7.94445V8.45544C7.94445 7.93888 7.75129 7.44349 7.40748 7.07823C7.06366 6.71297 6.59735 6.50777 6.11112 6.50777H4.88891C4.40269 6.50777 3.93637 6.71297 3.59256 7.07823C3.24874 7.44349 3.05559 7.93888 3.05559 8.45544V11.7016H1.83338C1.6713 11.7016 1.51587 11.6332 1.40126 11.5114C1.28666 11.3896 1.22227 11.2245 1.22227 11.0523V5.37163C1.22238 5.27945 1.24097 5.18835 1.27679 5.10439C1.31262 5.02044 1.36486 4.94555 1.43005 4.88471L5.09669 1.47629C5.20821 1.37221 5.35158 1.31481 5.50002 1.31481C5.64846 1.31481 5.79183 1.37221 5.90335 1.47629L9.56999 4.88471C9.63518 4.94555 9.68742 5.02044 9.72324 5.10439C9.75907 5.18835 9.77766 5.27945 9.77777 5.37163V11.0523Z" fill="#9FA29A"/>
</svg>
