<svg width="16" height="16" viewBox="0 0 16 16" fill="none" xmlns="http://www.w3.org/2000/svg">
<path fill-rule="evenodd" clip-rule="evenodd" d="M2.16675 7.99996C2.16675 4.7783 4.77842 2.16663 8.00008 2.16663C11.2217 2.16663 13.8334 4.7783 13.8334 7.99996C13.8334 11.2216 11.2217 13.8333 8.00008 13.8333C4.77842 13.8333 2.16675 11.2216 2.16675 7.99996ZM8.66675 5.33329C8.66675 5.70148 8.36827 5.99996 8.00008 5.99996C7.63189 5.99996 7.33342 5.70148 7.33342 5.33329C7.33342 4.9651 7.63189 4.66663 8.00008 4.66663C8.36827 4.66663 8.66675 4.9651 8.66675 5.33329ZM8.00008 7.16663C8.27622 7.16663 8.50008 7.39048 8.50008 7.66663V11C8.50008 11.2761 8.27622 11.5 8.00008 11.5C7.72394 11.5 7.50008 11.2761 7.50008 11V7.66663C7.50008 7.39048 7.72394 7.16663 8.00008 7.16663Z" fill="#5F5F5F"/>
</svg>
