<svg width="54" height="62" viewBox="0 0 54 62" fill="none" xmlns="http://www.w3.org/2000/svg">
<path d="M46.1201 7.68092C41.0535 2.76291 34.1818 -5.18196e-08 27.0165 0C19.8513 5.18196e-08 12.9795 2.76291 7.91296 7.68092C2.84638 12.5989 5.33851e-08 19.2692 0 26.2243C-5.33851e-08 33.1794 2.84638 39.8496 7.91296 44.7677L24.6923 61.0858C24.9883 61.3755 25.3404 61.6054 25.7284 61.7623C26.1164 61.9192 26.5325 62 26.9529 62C27.3732 62 27.7893 61.9192 28.1773 61.7623C28.5653 61.6054 28.9175 61.3755 29.2134 61.0858L46.1201 44.6131C51.1655 39.7156 54 33.0731 54 26.147C54 19.2209 51.1655 12.5785 46.1201 7.68092V7.68092ZM41.5671 40.1936L27.0165 54.3793L12.466 40.1936C9.59135 37.4007 7.63429 33.8433 6.84219 29.9709C6.05009 26.0986 6.4585 22.0852 8.01581 18.4382C9.57312 14.7911 12.2094 11.6741 15.5914 9.4811C18.9734 7.28812 22.9493 6.11765 27.0165 6.11765C31.0837 6.11765 35.0596 7.28812 38.4416 9.4811C41.8237 11.6741 44.4599 14.7911 46.0173 18.4382C47.5746 22.0852 47.983 26.0986 47.1909 29.9709C46.3988 33.8433 44.4417 37.4007 41.5671 40.1936V40.1936ZM17.4647 16.7363C14.8944 19.2389 13.4511 22.6286 13.4511 26.1625C13.4511 29.6963 14.8944 33.086 17.4647 35.5887C19.3743 37.4455 21.8063 38.7135 24.4555 39.2337C27.1048 39.7539 29.8533 39.5031 32.3562 38.5128C34.8592 37.5225 37.0051 35.8368 38.5248 33.6671C40.0445 31.4975 40.8702 28.9405 40.8985 26.317C40.9128 24.5653 40.5652 22.8286 39.8761 21.2095C39.1871 19.5904 38.1706 18.1219 36.8867 16.8908C35.6248 15.6378 34.1201 14.6394 32.4592 13.9531C30.7983 13.2668 29.0139 12.9061 27.2088 12.8917C25.4037 12.8773 23.6135 13.2096 21.9413 13.8694C20.269 14.5292 18.7476 15.5035 17.4647 16.7363V16.7363ZM32.3974 31.2001C31.1908 32.3892 29.5962 33.1345 27.8862 33.3086C26.1761 33.4828 24.4569 33.0749 23.0223 32.1548C21.5878 31.2348 20.527 29.8595 20.0215 28.2643C19.5159 26.6691 19.5969 24.9529 20.2506 23.4093C20.9042 21.8656 22.09 20.5902 23.6052 19.8013C25.1204 19.0123 26.8709 18.7587 28.5574 19.0839C30.2438 19.4091 31.7616 20.2928 32.8511 21.5839C33.9407 22.8751 34.5343 24.4935 34.5306 26.1625C34.4843 28.0702 33.6598 29.882 32.2382 31.2001H32.3974Z" fill="#9FA29A"/>
</svg>
