<svg width="15" height="13" viewBox="0 0 15 13" fill="none" xmlns="http://www.w3.org/2000/svg">
<path d="M0.485718 6.82256V10.0481C0.485718 10.2192 0.553447 10.3833 0.674006 10.5043C0.794565 10.6253 0.958079 10.6932 1.12857 10.6932H1.77143C1.77143 11.2065 1.97462 11.6988 2.3363 12.0617C2.69797 12.4247 3.18851 12.6286 3.7 12.6286C4.21149 12.6286 4.70203 12.4247 5.06371 12.0617C5.42539 11.6988 5.62857 11.2065 5.62857 10.6932H9.48572C9.48572 11.2065 9.68891 11.6988 10.0506 12.0617C10.4123 12.4247 10.9028 12.6286 11.4143 12.6286C11.9258 12.6286 12.4163 12.4247 12.778 12.0617C13.1397 11.6988 13.3429 11.2065 13.3429 10.6932H13.9857C14.1562 10.6932 14.3197 10.6253 14.4403 10.5043C14.5608 10.3833 14.6286 10.2192 14.6286 10.0481V2.30677C14.6286 1.79348 14.4254 1.30122 14.0637 0.938277C13.702 0.575331 13.2115 0.371429 12.7 0.371429H6.91429C6.4028 0.371429 5.91226 0.575331 5.55058 0.938277C5.18891 1.30122 4.98572 1.79348 4.98572 2.30677V3.59699H3.7C3.4006 3.59699 3.10531 3.66695 2.83752 3.80131C2.56973 3.93568 2.33679 4.13077 2.15715 4.37113L0.614289 6.43549C0.595487 6.46353 0.580362 6.49389 0.569289 6.52581L0.530718 6.59677C0.502346 6.66871 0.487103 6.7452 0.485718 6.82256ZM10.7714 10.6932C10.7714 10.5656 10.8091 10.4409 10.8798 10.3348C10.9504 10.2287 11.0508 10.1461 11.1683 10.0972C11.2857 10.0484 11.415 10.0356 11.5397 10.0605C11.6644 10.0854 11.779 10.1468 11.8689 10.2371C11.9588 10.3273 12.02 10.4422 12.0448 10.5674C12.0696 10.6925 12.0569 10.8222 12.0082 10.9401C11.9596 11.058 11.8772 11.1587 11.7714 11.2296C11.6657 11.3005 11.5414 11.3383 11.4143 11.3383C11.2438 11.3383 11.0803 11.2704 10.9597 11.1494C10.8392 11.0284 10.7714 10.8643 10.7714 10.6932ZM6.27143 2.30677C6.27143 2.13567 6.33916 1.97159 6.45972 1.8506C6.58028 1.72962 6.74379 1.66166 6.91429 1.66166H12.7C12.8705 1.66166 13.034 1.72962 13.1546 1.8506C13.2751 1.97159 13.3429 2.13567 13.3429 2.30677V9.40301H12.8414C12.6607 9.20344 12.4403 9.04399 12.1946 8.93487C11.9488 8.82576 11.683 8.76939 11.4143 8.76939C11.1455 8.76939 10.8798 8.82576 10.634 8.93487C10.3882 9.04399 10.1679 9.20344 9.98715 9.40301H6.27143V2.30677ZM4.98572 6.17744H2.41429L3.18572 5.14526C3.2456 5.06514 3.32324 5.00011 3.41251 4.95533C3.50177 4.91054 3.6002 4.88722 3.7 4.88722H4.98572V6.17744ZM3.05715 10.6932C3.05715 10.5656 3.09485 10.4409 3.16549 10.3348C3.23613 10.2287 3.33653 10.1461 3.45399 10.0972C3.57146 10.0484 3.70072 10.0356 3.82542 10.0605C3.95012 10.0854 4.06467 10.1468 4.15457 10.2371C4.24448 10.3273 4.3057 10.4422 4.33051 10.5674C4.35531 10.6925 4.34258 10.8222 4.29393 10.9401C4.24527 11.058 4.16287 11.1587 4.05716 11.2296C3.95144 11.3005 3.82715 11.3383 3.7 11.3383C3.52951 11.3383 3.36599 11.2704 3.24543 11.1494C3.12488 11.0284 3.05715 10.8643 3.05715 10.6932ZM1.77143 7.46767H4.98572V9.26108C4.60632 8.92082 4.1083 8.74481 3.60016 8.77139C3.09202 8.79798 2.61494 9.025 2.27286 9.40301H1.77143V7.46767Z" fill="#8E9775"/>
</svg>
