<svg width="39" height="27" viewBox="0 0 39 27" fill="none" xmlns="http://www.w3.org/2000/svg">
<path d="M23.6096 1C11.5826 1 1.05554 2.80543 1.05554 10.7216C1.27278 12.7206 2.26954 14.5534 3.82953 15.8222C5.38953 17.091 7.38692 17.6935 9.38831 17.4989C10.6044 17.4978 11.8098 17.2718 12.9436 16.8323C13.2941 16.6793 13.6723 16.6004 14.0547 16.6004C14.437 16.6004 14.8153 16.6793 15.1657 16.8323C17.7523 18.2623 20.6541 19.026 23.6096 19.0543C31.1091 19.0543 37.1642 14.9991 37.1642 10.0272C37.1642 5.05528 31.1091 1 23.6096 1Z" stroke="#E28F83" stroke-width="2" stroke-linecap="round" stroke-linejoin="round"/>
<path d="M37.1642 10.0272V16.9712C37.1642 21.943 31.1091 25.9983 23.6096 25.9983C20.652 26.0389 17.7309 25.3421 15.1102 23.9707C14.7597 23.8177 14.3815 23.7388 13.9991 23.7388C13.6168 23.7388 13.2385 23.8177 12.8881 23.9707C11.7524 24.4007 10.5471 24.6173 9.33277 24.6095C7.33138 24.8041 5.33399 24.2016 3.77399 22.9328C2.21399 21.664 1.21724 19.8313 1 17.8322V10.7216" stroke="#E28F83" stroke-width="2" stroke-linecap="round" stroke-linejoin="round"/>
<path d="M10.7772 10.7216C11.5442 10.7216 12.166 10.0998 12.166 9.33278C12.166 8.56577 11.5442 7.94398 10.7772 7.94398C10.0102 7.94398 9.38843 8.56577 9.38843 9.33278C9.38843 10.0998 10.0102 10.7216 10.7772 10.7216Z" stroke="#E28F83" stroke-width="2" stroke-linecap="round" stroke-linejoin="round"/>
</svg>
