<svg width="18" height="18" viewBox="0 0 18 18" fill="none" xmlns="http://www.w3.org/2000/svg">
<path d="M10.125 7.3125C10.125 7.00184 9.87316 6.75 9.5625 6.75H5.0625C4.75184 6.75 4.5 7.00184 4.5 7.3125C4.5 7.62316 4.75184 7.875 5.0625 7.875H9.5625C9.87316 7.875 10.125 7.62316 10.125 7.3125Z" fill="#9FA29A"/>
<path d="M9.375 9.5625C9.375 9.25184 9.12316 9 8.8125 9H5.0625C4.75184 9 4.5 9.25184 4.5 9.5625C4.5 9.87316 4.75184 10.125 5.0625 10.125H8.8125C9.12316 10.125 9.375 9.87316 9.375 9.5625Z" fill="#9FA29A"/>
<path d="M9.5625 11.25C9.87316 11.25 10.125 11.5018 10.125 11.8125C10.125 12.1232 9.87316 12.375 9.5625 12.375H5.0625C4.75184 12.375 4.5 12.1232 4.5 11.8125C4.5 11.5018 4.75184 11.25 5.0625 11.25H9.5625Z" fill="#9FA29A"/>
<path fill-rule="evenodd" clip-rule="evenodd" d="M4.5 16.3125H14.25C15.3891 16.3125 16.3125 15.3891 16.3125 14.25V10.125C16.3125 9.81434 16.0607 9.5625 15.75 9.5625H13.3125V3.70739C13.3125 2.63984 12.1058 2.01887 11.2371 2.63937L11.1058 2.73314C10.5205 3.15126 9.72756 3.14986 9.13945 2.72978C8.16155 2.03128 6.83845 2.03128 5.86055 2.72978C5.27244 3.14986 4.47953 3.15126 3.89416 2.73314L3.76288 2.63937C2.89417 2.01887 1.6875 2.63984 1.6875 3.70739V13.5C1.6875 15.0533 2.9467 16.3125 4.5 16.3125ZM6.51445 3.64523C7.10119 3.22613 7.89881 3.22613 8.48555 3.64523C9.46208 4.34274 10.7805 4.34807 11.7597 3.64859L11.891 3.55482C12.0151 3.46618 12.1875 3.55489 12.1875 3.70739V14.25C12.1875 14.5876 12.2686 14.9062 12.4124 15.1875H4.5C3.56802 15.1875 2.8125 14.432 2.8125 13.5V3.70739C2.8125 3.55489 2.98488 3.46618 3.10898 3.55482L3.24027 3.64859C4.21954 4.34807 5.53792 4.34274 6.51445 3.64523ZM13.3125 14.25V10.6875H15.1875V14.25C15.1875 14.7678 14.7678 15.1875 14.25 15.1875C13.7322 15.1875 13.3125 14.7678 13.3125 14.25Z" fill="#9FA29A"/>
</svg>
