<svg width="66" height="66" viewBox="0 0 66 66" fill="none" xmlns="http://www.w3.org/2000/svg">
<path fill-rule="evenodd" clip-rule="evenodd" d="M52.6563 14.4375H14.6716L11.4262 8.62014C11.0619 7.96717 10.3727 7.5625 9.625 7.5625H5.5C4.36091 7.5625 3.4375 8.48591 3.4375 9.625C3.4375 10.7641 4.36091 11.6875 5.5 11.6875H8.4139L11.6168 17.4285L19.0035 33.7724L19.0111 33.7891L19.6617 35.2286L12.2454 43.1394C11.7121 43.7082 11.5452 44.5291 11.814 45.261C12.0827 45.9929 12.7412 46.5106 13.5159 46.5992L20.2757 47.3717C28.7311 48.338 37.269 48.338 45.7244 47.3717L52.4842 46.5992C53.616 46.4698 54.4286 45.4475 54.2992 44.3158C54.1699 43.1841 53.1476 42.3715 52.0159 42.5008L45.256 43.2734C37.1119 44.2042 28.8882 44.2042 20.7441 43.2734L18.0614 42.9668L23.5047 37.1606C23.5574 37.1045 23.6063 37.0461 23.6514 36.986L25.7217 37.2553C28.6227 37.6328 31.5552 37.7068 34.4716 37.4762C41.2736 36.9382 47.5778 33.7015 51.9791 28.4875L53.5687 26.6042C53.6221 26.5409 53.6717 26.4745 53.7171 26.4053L56.6798 21.8902C58.7799 18.6899 56.4841 14.4375 52.6563 14.4375ZM23.8048 32.8461C23.3499 32.7869 22.9576 32.498 22.7661 32.0816L22.7624 32.0736L16.656 18.5625H52.6563C53.2031 18.5625 53.5311 19.17 53.2311 19.6272L50.3365 24.0384L48.8269 25.8267C45.1363 30.1988 39.8501 32.9129 34.1464 33.364C31.5158 33.572 28.8707 33.5053 26.2539 33.1648L23.8048 32.8461Z" fill="#8E9775"/>
<path d="M17.875 50.875C15.5968 50.875 13.75 52.7218 13.75 55C13.75 57.2782 15.5968 59.125 17.875 59.125C20.1532 59.125 22 57.2782 22 55C22 52.7218 20.1532 50.875 17.875 50.875Z" fill="#8E9775"/>
<path d="M44 55C44 52.7218 45.8468 50.875 48.125 50.875C50.4032 50.875 52.25 52.7218 52.25 55C52.25 57.2782 50.4032 59.125 48.125 59.125C45.8468 59.125 44 57.2782 44 55Z" fill="#8E9775"/>
</svg>
