<svg width="19" height="19" viewBox="0 0 19 19" fill="none" xmlns="http://www.w3.org/2000/svg">
<path d="M7.91669 10.4896C8.24461 10.4896 8.51044 10.7554 8.51044 11.0833V12.6667C8.51044 12.9946 8.24461 13.2604 7.91669 13.2604C7.58877 13.2604 7.32294 12.9946 7.32294 12.6667V11.0833C7.32294 10.7554 7.58877 10.4896 7.91669 10.4896Z" fill="#9FA29A"/>
<path d="M11.6771 11.0833C11.6771 10.7554 11.4113 10.4896 11.0834 10.4896C10.7554 10.4896 10.4896 10.7554 10.4896 11.0833V12.6667C10.4896 12.9946 10.7554 13.2604 11.0834 13.2604C11.4113 13.2604 11.6771 12.9946 11.6771 12.6667V11.0833Z" fill="#9FA29A"/>
<path fill-rule="evenodd" clip-rule="evenodd" d="M7.63922 2.67187C7.80318 2.38788 7.70588 2.02475 7.42189 1.86079C7.13791 1.69683 6.77478 1.79413 6.61082 2.07812L5.02748 4.82053C5.00376 4.86162 4.98551 4.90436 4.9725 4.94791H4.75002C3.54765 4.94791 2.57294 5.92262 2.57294 7.12499C2.57294 7.80514 2.88483 8.41243 3.37339 8.81167L3.90138 12.4412L4.25505 14.0983C4.46695 15.0911 5.27746 15.8453 6.28297 15.9852C8.41739 16.2822 10.5827 16.2822 12.7171 15.9852C13.7226 15.8453 14.5331 15.0911 14.745 14.0983L15.0987 12.4412L15.6267 8.81167C16.1152 8.41243 16.4271 7.80514 16.4271 7.12499C16.4271 5.92262 15.4524 4.94791 14.25 4.94791H14.0275C14.0145 4.90436 13.9963 4.86162 13.9726 4.82053L12.3892 2.07812C12.2253 1.79413 11.8621 1.69683 11.5781 1.86079C11.2942 2.02475 11.1969 2.38788 11.3608 2.67187L12.6749 4.94791H6.32515L7.63922 2.67187ZM14.3557 9.29956C14.3207 9.30123 14.2854 9.30208 14.25 9.30208H4.75002C4.7146 9.30208 4.67937 9.30123 4.64436 9.29956L5.07088 12.2316L5.41639 13.8504C5.52405 14.3548 5.9358 14.7379 6.44663 14.809C8.47247 15.0909 10.5276 15.0909 12.5534 14.809C13.0642 14.7379 13.476 14.3548 13.5836 13.8504L13.9292 12.2316L14.3557 9.29956ZM3.76044 7.12499C3.76044 6.57846 4.20349 6.13541 4.75002 6.13541H14.25C14.7966 6.13541 15.2396 6.57846 15.2396 7.12499C15.2396 7.67153 14.7966 8.11458 14.25 8.11458H4.75002C4.20349 8.11458 3.76044 7.67153 3.76044 7.12499Z" fill="#9FA29A"/>
</svg>
