<svg width="64" height="82" viewBox="0 0 64 82" fill="none" xmlns="http://www.w3.org/2000/svg">
<path d="M60 20.5H48V16.4C48 12.0504 46.3143 7.87905 43.3137 4.80345C40.3131 1.72785 36.2435 0 32 0C27.7565 0 23.6869 1.72785 20.6863 4.80345C17.6857 7.87905 16 12.0504 16 16.4V20.5H4C2.93913 20.5 1.92172 20.932 1.17157 21.7009C0.421428 22.4698 0 23.5126 0 24.6V69.7C0 72.9622 1.26428 76.0907 3.51472 78.3974C5.76516 80.7041 8.8174 82 12 82H52C55.1826 82 58.2348 80.7041 60.4853 78.3974C62.7357 76.0907 64 72.9622 64 69.7V24.6C64 23.5126 63.5786 22.4698 62.8284 21.7009C62.0783 20.932 61.0609 20.5 60 20.5ZM24 16.4C24 14.2252 24.8429 12.1395 26.3431 10.6017C27.8434 9.06393 29.8783 8.2 32 8.2C34.1217 8.2 36.1566 9.06393 37.6569 10.6017C39.1571 12.1395 40 14.2252 40 16.4V20.5H24V16.4ZM56 69.7C56 70.7874 55.5786 71.8302 54.8284 72.5991C54.0783 73.368 53.0609 73.8 52 73.8H12C10.9391 73.8 9.92172 73.368 9.17157 72.5991C8.42143 71.8302 8 70.7874 8 69.7V28.7H16V32.8C16 33.8874 16.4214 34.9302 17.1716 35.6991C17.9217 36.468 18.9391 36.9 20 36.9C21.0609 36.9 22.0783 36.468 22.8284 35.6991C23.5786 34.9302 24 33.8874 24 32.8V28.7H40V32.8C40 33.8874 40.4214 34.9302 41.1716 35.6991C41.9217 36.468 42.9391 36.9 44 36.9C45.0609 36.9 46.0783 36.468 46.8284 35.6991C47.5786 34.9302 48 33.8874 48 32.8V28.7H56V69.7Z" fill="white"/>
</svg>
