<svg width="38" height="33" viewBox="0 0 38 33" fill="none" xmlns="http://www.w3.org/2000/svg">
<path d="M3.76923 14.8461H6.53845C7.2729 14.8461 7.97726 15.1379 8.49659 15.6572C9.01592 16.1766 9.30768 16.8809 9.30768 17.6154V31.4615H1V17.6154C1 16.8809 1.29176 16.1766 1.81109 15.6572C2.33042 15.1379 3.03478 14.8461 3.76923 14.8461V14.8461Z" stroke="#E28F83" stroke-width="2" stroke-linecap="round" stroke-linejoin="round"/>
<path d="M31.4616 14.8461H34.2308C34.9653 14.8461 35.6696 15.1379 36.189 15.6572C36.7083 16.1766 37.0001 16.8809 37.0001 17.6154V31.4615H28.6924V17.6154C28.6924 16.8809 28.9841 16.1766 29.5035 15.6572C30.0228 15.1379 30.7272 14.8461 31.4616 14.8461V14.8461Z" stroke="#E28F83" stroke-width="2" stroke-linecap="round" stroke-linejoin="round"/>
<path d="M9.30762 31.4615H28.6922" stroke="#E28F83" stroke-width="2" stroke-linecap="round" stroke-linejoin="round"/>
<path d="M6.53845 14.8461V9.30768C6.53845 7.10435 7.41372 4.99126 8.97172 3.43326C10.5297 1.87527 12.6428 1 14.8461 1H23.1538C25.3571 1 27.4702 1.87527 29.0282 3.43326C30.5862 4.99126 31.4615 7.10435 31.4615 9.30768V14.8461" stroke="#E28F83" stroke-width="2" stroke-linecap="round" stroke-linejoin="round"/>
<path d="M9.30762 20.3846H28.6922" stroke="#E28F83" stroke-width="2" stroke-linecap="round" stroke-linejoin="round"/>
</svg>
