<svg width="51" height="51" viewBox="0 0 51 51" fill="none" xmlns="http://www.w3.org/2000/svg">
<path d="M25.5 0C11.475 0 0 11.475 0 25.5C0 39.525 11.475 51 25.5 51C39.525 51 51 39.525 51 25.5C51 11.475 39.525 0 25.5 0ZM34.935 27.285C33.915 28.305 32.385 28.305 31.365 27.285L28.05 23.97V33.15C28.05 34.68 27.03 35.7 25.5 35.7C23.97 35.7 22.95 34.68 22.95 33.15V23.97L19.635 27.285C18.615 28.305 17.085 28.305 16.065 27.285C15.045 26.265 15.045 24.735 16.065 23.715L23.715 16.065C24.735 15.045 26.265 15.045 27.285 16.065L34.935 23.715C35.955 24.735 35.955 26.265 34.935 27.285Z" fill="#E28F83"/>
</svg>
