<svg width="30" height="30" viewBox="0 0 30 30" fill="none" xmlns="http://www.w3.org/2000/svg">
<path d="M8.53846 1H21.4615C23.4609 1 25.3783 1.79423 26.792 3.20796C28.2058 4.6217 29 6.53914 29 8.53846C29 9.1097 28.7731 9.65754 28.3692 10.0615C27.9652 10.4654 27.4174 10.6923 26.8462 10.6923H3.15385C2.58261 10.6923 2.03477 10.4654 1.63085 10.0615C1.22692 9.65754 1 9.1097 1 8.53846C1 6.53914 1.79423 4.6217 3.20796 3.20796C4.6217 1.79423 6.53914 1 8.53846 1V1Z" stroke="#E28F83" stroke-width="2" stroke-linecap="round" stroke-linejoin="round"/>
<path d="M1 16.0769H29" stroke="#E28F83" stroke-width="2" stroke-linecap="round" stroke-linejoin="round"/>
<path d="M27.9231 21.4615H15L11.7692 24.6923L5.30769 21.4615H2.07692C1.79131 21.4615 1.51739 21.575 1.31542 21.777C1.11346 21.9789 1 22.2529 1 22.5385V22.5385C1 24.2522 1.68077 25.8957 2.89254 27.1075C4.10431 28.3192 5.74783 29 7.46154 29H22.5385C24.2522 29 25.8957 28.3192 27.1075 27.1075C28.3192 25.8957 29 24.2522 29 22.5385C29 22.2529 28.8865 21.9789 28.6846 21.777C28.4826 21.575 28.2087 21.4615 27.9231 21.4615Z" stroke="#E28F83" stroke-width="2" stroke-linecap="round" stroke-linejoin="round"/>
</svg>
